#!OML:ASF X:\für Bonn\!DataBase\2005_08_12_Daniel\c3d\Daniel.ASF
:FULLY-SPECIFIED
:DEGREES
225
root 2.55509 17.6452 16.7361 -4.86271 13.7472 -1.67274
lowerback 13.4823 -2.394 -0.016051
upperback 4.62131 -3.18129 -1.26438
thorax -2.7605 -1.56177 -0.813347
lowerneck 2.00055 0.788329 -1.84405
upperneck 21.8121 1.95483 -3.91206
head 6.3145 0.548301 -0.844587
rclavicle 1.6201e-014 4.77083e-015
rhumerus -50.0403 3.95371 -90.1011
rradius 115.203
rwrist -12.8818
rhand -13.8767 22.8102
rfingers 7.12502
rthumb 12.248 -6.81112
lclavicle 1.6201e-014 4.77083e-015
lhumerus -29.8264 24.3436 80.7814
lradius 29.0357
lwrist -19.6863
lhand -10.5501 -5.40524
lfingers 7.12502
lthumb 15.4539 23.997
rfemur 6.51533 14.5063 22.0161
rtibia 14.5868
rfoot -23.004 -23.2527
rtoes -11.4309
lfemur -5.43683 -16.1918 -15.3335
ltibia 30.5524
lfoot -20.626 0.951829
ltoes -12.4794
226
root 2.5411 17.6449 16.7144 -4.88875 13.9693 -1.6873
lowerback 13.8311 -2.49393 0.0384484
upperback 4.82541 -3.30107 -1.24611
thorax -2.73842 -1.61925 -0.796751
lowerneck 2.11838 0.986545 -1.85826
upperneck 21.6409 2.26859 -4.20778
head 6.24698 0.683482 -0.9223
rclavicle 4.96962e-015 -3.97569e-015
rhumerus -51.5942 3.19587 -91.2142
rradius 114.953
rwrist -12.4903
rhand -13.922 22.7987
rfingers 7.12502
rthumb 12.2043 -6.82527
lclavicle 4.96962e-015 -3.97569e-015
lhumerus -29.6686 23.7262 81.2688
lradius 29.5562
lwrist -19.061
lhand -10.4286 -5.23315
lfingers 7.12502
lthumb 15.5709 24.16
rfemur 6.34906 14.1183 21.9631
rtibia 14.7545
rfoot -22.9703 -23.0693
rtoes -11.3542
lfemur -5.65308 -16.161 -15.2272
ltibia 30.6599
lfoot -20.5114 0.669509
ltoes -12.432
227
root 2.52529 17.6437 16.6939 -4.92225 14.2394 -1.70414
lowerback 14.1646 -2.59961 0.0773369
upperback 5.04834 -3.42921 -1.22314
thorax -2.68671 -1.68078 -0.765631
lowerneck 2.22252 1.17665 -1.84646
upperneck 21.4678 2.57545 -4.53772
head 6.18274 0.815559 -1.01585
rclavicle -1.98785e-016 -5.56597e-015
rhumerus -53.0482 2.50769 -92.2268
rradius 114.625
rwrist -12.1362
rhand -14.0836 22.8343
rfingers 7.12502
rthumb 12.0485 -6.79889
lclavicle -1.98785e-016 -5.56597e-015
lhumerus -29.5675 22.9807 81.7882
lradius 30.2105
lwrist -18.3019
lhand -10.3105 -5.06617
lfingers 7.12502
lthumb 15.6846 24.3181
rfemur 6.19663 13.7392 21.9371
rtibia 14.9376
rfoot -22.9692 -22.9476
rtoes -11.37
lfemur -5.87353 -16.1187 -15.1106
ltibia 30.7665
lfoot -20.3987 0.3414
ltoes -12.4309
228
root 2.5091 17.6421 16.6733 -4.98496 14.525 -1.73418
lowerback 14.5043 -2.70081 0.140458
upperback 5.2913 -3.54794 -1.22342
thorax -2.61926 -1.73711 -0.773488
lowerneck 2.35536 1.35012 -1.7482
upperneck 21.2657 2.85867 -4.90368
head 6.10615 0.9422 -1.13694
rclavicle -2.78299e-015 -7.95139e-016
rhumerus -54.3578 1.85553 -93.1842
rradius 114.141
rwrist -11.7817
rhand -14.4249 22.9009
rfingers 7.12502
rthumb 11.7194 -6.75127
lclavicle -2.78299e-015 -7.95139e-016
lhumerus -29.5023 22.1322 82.2788
lradius 30.945
lwrist -17.5062
lhand -10.2103 -4.89949
lfingers 7.12502
lthumb 15.7811 24.4772
rfemur 6.07672 13.3432 21.93
rtibia 15.1296
rfoot -23.0068 -22.8069
rtoes -11.3323
lfemur -6.07542 -16.0975 -14.9856
ltibia 30.8786
lfoot -20.2978 -0.0131036
ltoes -12.4212
229
root 2.49307 17.6409 16.6512 -5.05973 14.7929 -1.7522
lowerback 14.8909 -2.79212 0.177998
upperback 5.52444 -3.65634 -1.2169
thorax -2.58429 -1.78826 -0.75856
lowerneck 2.47939 1.5243 -1.673
upperneck 21.0855 3.14262 -5.26207
head 6.03925 1.068 -1.2519
rclavicle 9.14409e-015 -7.95139e-016
rhumerus -55.501 1.2765 -94.0543
rradius 113.454
rwrist -11.3956
rhand -14.8996 23.093
rfingers 7.12502
rthumb 11.2616 -6.58474
lclavicle 9.14409e-015 -7.95139e-016
lhumerus -29.5053 21.267 82.7585
lradius 31.7289
lwrist -16.6667
lhand -10.1511 -4.78928
lfingers 7.12502
lthumb 15.8381 24.5829
rfemur 5.94286 12.9135 21.899
rtibia 15.3437
rfoot -22.9868 -22.6273
rtoes -11.243
lfemur -6.25809 -16.0595 -14.8837
ltibia 30.9907
lfoot -20.1748 -0.337776
ltoes -12.3665
230
root 2.47623 17.6388 16.6266 -5.14076 15.0405 -1.77289
lowerback 15.3165 -2.86105 0.20765
upperback 5.75919 -3.73556 -1.20851
thorax -2.56625 -1.82474 -0.739786
lowerneck 2.57043 1.6789 -1.54675
upperneck 20.9011 3.40604 -5.66562
head 5.97859 1.18501 -1.39057
rclavicle -1.66979e-014 -1.59028e-015
rhumerus -56.4517 0.749294 -94.8266
rradius 112.586
rwrist -11.0241
rhand -15.4808 23.4161
rfingers 7.12502
rthumb 10.701 -6.29141
lclavicle -1.66979e-014 -1.59028e-015
lhumerus -29.503 20.5306 83.2073
lradius 32.4805
lwrist -15.9814
lhand -10.1041 -4.808
lfingers 7.12502
lthumb 15.8834 24.5606
rfemur 5.79666 12.4598 21.8583
rtibia 15.5618
rfoot -22.9637 -22.405
rtoes -11.2287
lfemur -6.44658 -16.015 -14.7734
ltibia 31.1117
lfoot -20.061 -0.666784
ltoes -12.3115
231
root 2.45941 17.6361 16.6019 -5.2225 15.2827 -1.79085
lowerback 15.7546 -2.92238 0.24126
upperback 5.99678 -3.80419 -1.2207
thorax -2.55219 -1.85554 -0.745525
lowerneck 2.64776 1.82709 -1.38848
upperneck 20.7248 3.65619 -6.04987
head 5.92387 1.29927 -1.52902
rclavicle -5.46658e-014 -8.74653e-015
rhumerus -57.2169 0.233431 -95.5567
rradius 111.546
rwrist -10.638
rhand -16.136 23.896
rfingers 7.12502
rthumb 10.0689 -5.84311
lclavicle -5.46658e-014 -8.74653e-015
lhumerus -29.508 19.836 83.5957
lradius 33.216
lwrist -15.3713
lhand -10.0766 -4.87126
lfingers 7.12502
lthumb 15.9099 24.4952
rfemur 5.63732 12.0002 21.814
rtibia 15.803
rfoot -22.895 -22.1888
rtoes -11.2539
lfemur -6.63623 -15.9345 -14.6677
ltibia 31.2357
lfoot -19.9334 -1.02313
ltoes -12.2587
232
root 2.44207 17.633 16.5753 -5.3195 15.5198 -1.81036
lowerback 16.2349 -2.97711 0.267685
upperback 6.23409 -3.86417 -1.22779
thorax -2.55847 -1.88186 -0.740951
lowerneck 2.77823 1.96966 -1.18012
upperneck 20.4988 3.90687 -6.5276
head 5.848 1.41458 -1.70618
rclavicle 7.07673e-014 -3.02153e-014
rhumerus -57.8125 -0.246613 -96.2132
rradius 110.396
rwrist -10.243
rhand -16.8082 24.4485
rfingers 7.12502
rthumb 9.42041 -5.32095
lclavicle 7.07673e-014 -3.02153e-014
lhumerus -29.5199 19.1538 83.9738
lradius 33.932
lwrist -14.7516
lhand -10.0917 -5.03737
lfingers 7.12502
lthumb 15.8954 24.3303
rfemur 5.47426 11.515 21.7607
rtibia 16.0577
rfoot -22.8607 -21.9239
rtoes -11.2403
lfemur -6.82258 -15.8879 -14.566
ltibia 31.3694
lfoot -19.8166 -1.34494
ltoes -12.2028
233
root 2.42431 17.63 16.5484 -5.42054 15.7473 -1.84233
lowerback 16.7023 -3.01682 0.316553
upperback 6.50232 -3.89982 -1.23924
thorax -2.52509 -1.89551 -0.759331
lowerneck 2.91282 2.11417 -0.977329
upperneck 20.2404 4.15077 -6.97218
head 5.76194 1.5302 -1.87216
rclavicle 3.95581e-014 -7.95139e-016
rhumerus -58.2029 -0.72971 -96.7894
rradius 109.188
rwrist -9.86147
rhand -17.4587 25.0425
rfingers 7.12502
rthumb 8.79272 -4.75436
lclavicle 3.95581e-014 -7.95139e-016
lhumerus -29.4664 18.5022 84.3562
lradius 34.6332
lwrist -14.2066
lhand -10.0908 -5.17682
lfingers 7.12502
lthumb 15.8962 24.1907
rfemur 5.29968 11.0004 21.714
rtibia 16.3314
rfoot -22.8027 -21.6166
rtoes -11.1235
lfemur -7.0108 -15.7953 -14.4471
ltibia 31.5097
lfoot -19.7024 -1.69054
ltoes -12.1951
234
root 2.40598 17.6268 16.5203 -5.52211 15.9732 -1.87485
lowerback 17.1924 -3.05305 0.379692
upperback 6.75614 -3.92856 -1.26519
thorax -2.51922 -1.90515 -0.800474
lowerneck 3.23645 2.25992 -0.787149
upperneck 19.8521 4.37434 -7.39543
head 5.60326 1.64556 -2.03239
rclavicle -1.33186e-014 4.77083e-015
rhumerus -58.5134 -1.09415 -97.3141
rradius 108.033
rwrist -9.57713
rhand -18.0756 25.5216
rfingers 7.12502
rthumb 8.19741 -4.29935
lclavicle -1.33186e-014 4.77083e-015
lhumerus -29.439 17.8429 84.692
lradius 35.3293
lwrist -13.6432
lhand -10.1052 -5.3902
lfingers 7.12502
lthumb 15.8824 23.9785
rfemur 5.1093 10.4697 21.6649
rtibia 16.6137
rfoot -22.7279 -21.3223
rtoes -11.1903
lfemur -7.20712 -15.7396 -14.3295
ltibia 31.6611
lfoot -19.6032 -2.02747
ltoes -12.1785
